<svg width="42" height="42" viewBox="0 0 42 42" fill="none" xmlns="http://www.w3.org/2000/svg">
<g clip-path="url(#clip0_3_1117)">
<path d="M21 42C9.42025 42 0 32.5798 0 21C0 9.42025 9.42025 0 21 0C32.5798 0 42 9.42025 42 21C42 32.5798 32.5798 42 21 42ZM21 1.75C10.3862 1.75 1.75 10.3862 1.75 21C1.75 31.6138 10.3862 40.25 21 40.25C31.6138 40.25 40.25 31.6138 40.25 21C40.25 10.3862 31.6138 1.75 21 1.75ZM15.0413 33.25C13.3543 33.25 11.788 32.6113 10.6295 31.451L9.59875 30.2698C9.065 29.7395 8.74825 28.9765 8.74825 28.1628C8.74825 27.349 9.065 26.5878 9.639 26.012L12.1923 24.0415C13.2807 22.9442 15.1813 22.9302 16.3695 24.0782L17.9638 25.347C21.385 23.919 23.8035 21.4935 25.34 17.955L24.0503 16.3328C22.9303 15.2215 22.9303 13.293 24.1168 12.1065L25.9368 9.72475C27.237 8.40175 29.1638 8.48925 30.3135 9.639L31.4073 10.5875C32.6113 11.7845 33.25 13.3508 33.25 15.0378C33.25 22.8655 22.869 33.2465 15.0413 33.2465V33.25ZM14.259 24.9777C13.93 24.9777 13.5992 25.1038 13.3472 25.3558L10.794 27.3262C10.6348 27.496 10.5017 27.8197 10.5017 28.1645C10.5017 28.5092 10.6365 28.833 10.8798 29.078L11.9105 30.2593C12.6963 31.0433 13.8232 31.5 15.043 31.5C21.2975 31.5 31.5017 22.3055 31.5017 15.0413C31.5017 13.8215 31.045 12.6962 30.2173 11.8702L29.1235 10.92C28.546 10.3477 27.741 10.3898 27.2527 10.8798L25.4327 13.2615C24.8535 13.8495 24.8535 14.6703 25.3575 15.1725L27.3525 17.6715L27.1635 18.144C25.41 22.5138 22.3702 25.55 18.1318 27.167L17.6645 27.3455L15.1742 25.3558C14.9222 25.1038 14.5915 24.9777 14.2608 24.9777H14.259Z" fill="white"/>
</g>
<defs>
<clipPath id="clip0_3_1117">
<rect width="42" height="42" fill="white"/>
</clipPath>
</defs>
</svg>
