<svg width="16" height="16" viewBox="0 0 16 16" fill="none" xmlns="http://www.w3.org/2000/svg">
<path d="M15.8065 14.8619L11.8271 10.8825C12.9116 9.55625 13.4447 7.86392 13.3164 6.15556C13.188 4.44721 12.4079 2.85354 11.1375 1.7042C9.86711 0.554862 8.20353 -0.0622172 6.4909 -0.019396C4.77827 0.0234252 3.14761 0.72287 1.93622 1.93426C0.724823 3.14566 0.0253784 4.77632 -0.0174429 6.48895C-0.0602641 8.20158 0.556815 9.86516 1.70615 11.1356C2.85549 12.406 4.44916 13.1861 6.15751 13.3144C7.86587 13.4428 9.5582 12.9096 10.8845 11.8252L14.8638 15.8045C14.9895 15.926 15.1579 15.9932 15.3327 15.9916C15.5075 15.9901 15.6747 15.92 15.7984 15.7964C15.922 15.6728 15.9921 15.5056 15.9936 15.3308C15.9951 15.156 15.9279 14.9876 15.8065 14.8619ZM6.66847 11.9999C5.61364 11.9999 4.58249 11.6871 3.70543 11.101C2.82837 10.515 2.14478 9.68204 1.74112 8.7075C1.33745 7.73296 1.23183 6.6606 1.43762 5.62604C1.64341 4.59147 2.15136 3.64116 2.89724 2.89528C3.64312 2.1494 4.59343 1.64145 5.62799 1.43567C6.66256 1.22988 7.73491 1.3355 8.70945 1.73916C9.68399 2.14283 10.5169 2.82642 11.103 3.70348C11.689 4.58054 12.0018 5.61169 12.0018 6.66652C12.0002 8.08052 11.4378 9.43615 10.438 10.436C9.43811 11.4359 8.08247 11.9983 6.66847 11.9999Z" fill="white"/>
</svg>
