<svg width="16" height="20" viewBox="0 0 16 20" fill="none" xmlns="http://www.w3.org/2000/svg">
<path d="M8.60485 0C4.53448 0 0.511719 2.71641 0.511719 7.1127C0.511719 9.90853 2.08274 11.4971 3.03487 11.4971C3.42763 11.4971 3.65376 10.401 3.65376 10.0912C3.65376 9.72187 2.71353 8.93555 2.71353 7.39863C2.71353 4.20566 5.14147 1.94199 8.28351 1.94199C10.9852 1.94199 12.9847 3.47891 12.9847 6.30254C12.9847 8.41133 12.1396 12.3668 9.40226 12.3668C8.41442 12.3668 7.56941 11.652 7.56941 10.6273C7.56941 9.12617 8.61675 7.67266 8.61675 6.12383C8.61675 3.49479 4.89153 3.97135 4.89153 7.14844C4.89153 7.81562 4.97484 8.5543 5.27238 9.16191C4.72491 11.5209 3.60615 15.0355 3.60615 17.466C3.60615 18.2166 3.71327 18.9553 3.78468 19.7059C3.91956 19.8568 3.85212 19.8409 4.05841 19.7654C6.05789 17.0252 5.98648 16.4891 6.89101 12.9029C7.37898 13.8322 8.64056 14.3326 9.6403 14.3326C13.8535 14.3326 15.7458 10.2223 15.7458 6.51699C15.7458 2.57344 12.342 0 8.60485 0Z" fill="#807D7A"/>
</svg>
